<mxfile host="app.diagrams.net" agent="Mozilla/5.0 (Windows NT 10.0; Win64; x64) AppleWebKit/537.36 (KHTML, like Gecko) Chrome/131.0.0.0 Safari/537.36" version="24.9.1">
  <diagram name="第 1 页" id="R_YB8eP6xfJqm2-LIVEI">
    <mxGraphModel dx="1113" dy="603" grid="0" gridSize="10" guides="1" tooltips="1" connect="1" arrows="1" fold="1" page="0" pageScale="1" pageWidth="827" pageHeight="1169" math="0" shadow="0">
      <root>
        <mxCell id="0" />
        <mxCell id="1" parent="0" />
        <mxCell id="FWlroTrUWCIazvGDAyiw-24" value="" style="endArrow=none;html=1;rounded=0;fontSize=12;startSize=8;endSize=8;curved=1;" edge="1" parent="1">
          <mxGeometry width="50" height="50" relative="1" as="geometry">
            <mxPoint x="30" y="108" as="sourcePoint" />
            <mxPoint x="90" y="108" as="targetPoint" />
          </mxGeometry>
        </mxCell>
        <mxCell id="FWlroTrUWCIazvGDAyiw-26" value="" style="endArrow=none;html=1;rounded=0;fontSize=12;startSize=8;endSize=8;curved=1;" edge="1" parent="1">
          <mxGeometry width="50" height="50" relative="1" as="geometry">
            <mxPoint x="30" y="188" as="sourcePoint" />
            <mxPoint x="90" y="188" as="targetPoint" />
          </mxGeometry>
        </mxCell>
        <mxCell id="FWlroTrUWCIazvGDAyiw-27" value="" style="endArrow=none;html=1;rounded=0;fontSize=12;startSize=8;endSize=8;curved=1;" edge="1" parent="1">
          <mxGeometry width="50" height="50" relative="1" as="geometry">
            <mxPoint x="30" y="188" as="sourcePoint" />
            <mxPoint x="30" y="108" as="targetPoint" />
          </mxGeometry>
        </mxCell>
        <mxCell id="FWlroTrUWCIazvGDAyiw-28" value="" style="endArrow=none;html=1;rounded=0;fontSize=12;startSize=8;endSize=8;curved=1;" edge="1" parent="1">
          <mxGeometry width="50" height="50" relative="1" as="geometry">
            <mxPoint x="10" y="120" as="sourcePoint" />
            <mxPoint x="90" y="120" as="targetPoint" />
          </mxGeometry>
        </mxCell>
        <mxCell id="FWlroTrUWCIazvGDAyiw-29" value="" style="endArrow=none;html=1;rounded=0;fontSize=12;startSize=8;endSize=8;curved=1;" edge="1" parent="1">
          <mxGeometry width="50" height="50" relative="1" as="geometry">
            <mxPoint x="10" y="200" as="sourcePoint" />
            <mxPoint x="90" y="200" as="targetPoint" />
          </mxGeometry>
        </mxCell>
        <mxCell id="FWlroTrUWCIazvGDAyiw-30" value="" style="endArrow=none;html=1;rounded=0;fontSize=12;startSize=8;endSize=8;curved=1;" edge="1" parent="1">
          <mxGeometry width="50" height="50" relative="1" as="geometry">
            <mxPoint x="-10" y="136" as="sourcePoint" />
            <mxPoint x="94" y="136" as="targetPoint" />
          </mxGeometry>
        </mxCell>
        <mxCell id="FWlroTrUWCIazvGDAyiw-31" value="" style="endArrow=none;html=1;rounded=0;fontSize=12;startSize=8;endSize=8;curved=1;" edge="1" parent="1">
          <mxGeometry width="50" height="50" relative="1" as="geometry">
            <mxPoint x="-10" y="216" as="sourcePoint" />
            <mxPoint x="90" y="216" as="targetPoint" />
          </mxGeometry>
        </mxCell>
        <mxCell id="FWlroTrUWCIazvGDAyiw-32" value="" style="endArrow=none;html=1;rounded=0;fontSize=12;startSize=8;endSize=8;curved=1;" edge="1" parent="1">
          <mxGeometry width="50" height="50" relative="1" as="geometry">
            <mxPoint x="10" y="200" as="sourcePoint" />
            <mxPoint x="10" y="120" as="targetPoint" />
          </mxGeometry>
        </mxCell>
        <mxCell id="FWlroTrUWCIazvGDAyiw-33" value="" style="endArrow=none;html=1;rounded=0;fontSize=12;startSize=8;endSize=8;curved=1;" edge="1" parent="1">
          <mxGeometry width="50" height="50" relative="1" as="geometry">
            <mxPoint x="-10" y="216" as="sourcePoint" />
            <mxPoint x="-10" y="136" as="targetPoint" />
          </mxGeometry>
        </mxCell>
        <mxCell id="FWlroTrUWCIazvGDAyiw-34" value="" style="endArrow=none;html=1;rounded=0;fontSize=12;startSize=8;endSize=8;curved=1;" edge="1" parent="1">
          <mxGeometry width="50" height="50" relative="1" as="geometry">
            <mxPoint x="-30" y="228" as="sourcePoint" />
            <mxPoint x="90" y="228" as="targetPoint" />
          </mxGeometry>
        </mxCell>
        <mxCell id="FWlroTrUWCIazvGDAyiw-35" value="" style="endArrow=none;html=1;rounded=0;fontSize=12;startSize=8;endSize=8;curved=1;" edge="1" parent="1">
          <mxGeometry width="50" height="50" relative="1" as="geometry">
            <mxPoint x="-30" y="148" as="sourcePoint" />
            <mxPoint x="90" y="148" as="targetPoint" />
          </mxGeometry>
        </mxCell>
        <mxCell id="FWlroTrUWCIazvGDAyiw-36" value="" style="endArrow=none;html=1;rounded=0;fontSize=12;startSize=8;endSize=8;curved=1;" edge="1" parent="1">
          <mxGeometry width="50" height="50" relative="1" as="geometry">
            <mxPoint x="-30" y="228" as="sourcePoint" />
            <mxPoint x="-30" y="148" as="targetPoint" />
          </mxGeometry>
        </mxCell>
        <mxCell id="FWlroTrUWCIazvGDAyiw-37" value="" style="endArrow=none;html=1;rounded=0;fontSize=12;startSize=8;endSize=8;curved=1;" edge="1" parent="1">
          <mxGeometry width="50" height="50" relative="1" as="geometry">
            <mxPoint x="-70" y="189" as="sourcePoint" />
            <mxPoint x="-30" y="189" as="targetPoint" />
          </mxGeometry>
        </mxCell>
        <mxCell id="FWlroTrUWCIazvGDAyiw-38" value="" style="endArrow=none;html=1;rounded=0;fontSize=12;startSize=8;endSize=8;curved=1;" edge="1" parent="1">
          <mxGeometry width="50" height="50" relative="1" as="geometry">
            <mxPoint x="-70" y="177" as="sourcePoint" />
            <mxPoint x="-10" y="177" as="targetPoint" />
          </mxGeometry>
        </mxCell>
        <mxCell id="FWlroTrUWCIazvGDAyiw-39" value="" style="endArrow=none;html=1;rounded=0;fontSize=12;startSize=8;endSize=8;curved=1;" edge="1" parent="1">
          <mxGeometry width="50" height="50" relative="1" as="geometry">
            <mxPoint x="-70" y="164" as="sourcePoint" />
            <mxPoint x="10" y="164" as="targetPoint" />
          </mxGeometry>
        </mxCell>
        <mxCell id="FWlroTrUWCIazvGDAyiw-40" value="" style="endArrow=none;html=1;rounded=0;fontSize=12;startSize=8;endSize=8;curved=1;" edge="1" parent="1">
          <mxGeometry width="50" height="50" relative="1" as="geometry">
            <mxPoint x="-70" y="152.5" as="sourcePoint" />
            <mxPoint x="30" y="152.5" as="targetPoint" />
          </mxGeometry>
        </mxCell>
        <mxCell id="FWlroTrUWCIazvGDAyiw-41" value="" style="rounded=0;whiteSpace=wrap;html=1;dashed=1;fillColor=none;" vertex="1" parent="1">
          <mxGeometry x="-84" y="142" width="27" height="60" as="geometry" />
        </mxCell>
        <mxCell id="FWlroTrUWCIazvGDAyiw-18" value="" style="group;fillColor=default;" vertex="1" connectable="0" parent="1">
          <mxGeometry x="90" y="186" width="170" height="46" as="geometry" />
        </mxCell>
        <mxCell id="FWlroTrUWCIazvGDAyiw-19" value="" style="rounded=0;whiteSpace=wrap;html=1;" vertex="1" parent="FWlroTrUWCIazvGDAyiw-18">
          <mxGeometry x="-16" width="120" height="46" as="geometry" />
        </mxCell>
        <mxCell id="FWlroTrUWCIazvGDAyiw-22" value="" style="endArrow=none;dashed=1;html=1;dashPattern=1 3;strokeWidth=2;rounded=0;fontSize=12;startSize=8;endSize=8;curved=1;" edge="1" parent="FWlroTrUWCIazvGDAyiw-18">
          <mxGeometry width="50" height="50" relative="1" as="geometry">
            <mxPoint x="-36" y="28" as="sourcePoint" />
            <mxPoint x="-36" y="12" as="targetPoint" />
          </mxGeometry>
        </mxCell>
        <mxCell id="FWlroTrUWCIazvGDAyiw-23" value="&lt;font face=&quot;Times New Roman&quot;&gt;Circuit 2&lt;/font&gt;" style="text;html=1;align=center;verticalAlign=middle;whiteSpace=wrap;rounded=0;fontSize=16;" vertex="1" parent="FWlroTrUWCIazvGDAyiw-18">
          <mxGeometry x="8" y="8" width="65" height="30" as="geometry" />
        </mxCell>
        <mxCell id="FWlroTrUWCIazvGDAyiw-11" value="" style="group;fillColor=default;" vertex="1" connectable="0" parent="1">
          <mxGeometry x="90" y="106" width="199" height="46" as="geometry" />
        </mxCell>
        <mxCell id="FWlroTrUWCIazvGDAyiw-2" value="" style="rounded=0;whiteSpace=wrap;html=1;" vertex="1" parent="FWlroTrUWCIazvGDAyiw-11">
          <mxGeometry x="-16" width="120" height="46" as="geometry" />
        </mxCell>
        <mxCell id="FWlroTrUWCIazvGDAyiw-10" value="" style="endArrow=none;dashed=1;html=1;dashPattern=1 3;strokeWidth=2;rounded=0;fontSize=12;startSize=8;endSize=8;curved=1;" edge="1" parent="FWlroTrUWCIazvGDAyiw-11">
          <mxGeometry width="50" height="50" relative="1" as="geometry">
            <mxPoint x="-36" y="28" as="sourcePoint" />
            <mxPoint x="-36" y="12" as="targetPoint" />
          </mxGeometry>
        </mxCell>
        <mxCell id="FWlroTrUWCIazvGDAyiw-17" value="&lt;font face=&quot;Times New Roman&quot;&gt;Circuit 1&lt;/font&gt;" style="text;html=1;align=center;verticalAlign=middle;whiteSpace=wrap;rounded=0;fontSize=16;" vertex="1" parent="FWlroTrUWCIazvGDAyiw-11">
          <mxGeometry x="7" y="8" width="65" height="30" as="geometry" />
        </mxCell>
        <mxCell id="FWlroTrUWCIazvGDAyiw-62" value="&lt;font face=&quot;Times New Roman&quot;&gt;POs&lt;/font&gt;" style="text;html=1;align=center;verticalAlign=middle;whiteSpace=wrap;rounded=0;fontSize=16;" vertex="1" parent="FWlroTrUWCIazvGDAyiw-11">
          <mxGeometry x="139" y="3" width="60" height="30" as="geometry" />
        </mxCell>
        <mxCell id="FWlroTrUWCIazvGDAyiw-53" style="edgeStyle=orthogonalEdgeStyle;rounded=0;orthogonalLoop=1;jettySize=auto;html=1;exitX=0;exitY=0.25;exitDx=0;exitDy=0;exitPerimeter=0;entryX=1;entryY=0.25;entryDx=0;entryDy=0;fontSize=12;startSize=8;endSize=8;endArrow=none;endFill=0;" edge="1" parent="1" source="FWlroTrUWCIazvGDAyiw-51" target="FWlroTrUWCIazvGDAyiw-2">
          <mxGeometry relative="1" as="geometry" />
        </mxCell>
        <mxCell id="FWlroTrUWCIazvGDAyiw-54" style="edgeStyle=orthogonalEdgeStyle;rounded=0;orthogonalLoop=1;jettySize=auto;html=1;exitX=0;exitY=0.75;exitDx=0;exitDy=0;exitPerimeter=0;entryX=1;entryY=0.25;entryDx=0;entryDy=0;fontSize=12;startSize=8;endSize=8;endArrow=none;endFill=0;" edge="1" parent="1" source="FWlroTrUWCIazvGDAyiw-51" target="FWlroTrUWCIazvGDAyiw-19">
          <mxGeometry relative="1" as="geometry" />
        </mxCell>
        <mxCell id="FWlroTrUWCIazvGDAyiw-59" style="edgeStyle=orthogonalEdgeStyle;rounded=0;orthogonalLoop=1;jettySize=auto;html=1;exitX=1;exitY=0.5;exitDx=0;exitDy=0;exitPerimeter=0;fontSize=12;startSize=8;endSize=8;endArrow=none;endFill=0;entryX=0;entryY=0.25;entryDx=0;entryDy=0;entryPerimeter=0;" edge="1" parent="1" source="FWlroTrUWCIazvGDAyiw-51" target="FWlroTrUWCIazvGDAyiw-63">
          <mxGeometry relative="1" as="geometry">
            <mxPoint x="344.91949462890625" y="153" as="targetPoint" />
          </mxGeometry>
        </mxCell>
        <mxCell id="FWlroTrUWCIazvGDAyiw-51" value="" style="verticalLabelPosition=bottom;shadow=0;dashed=0;align=center;html=1;verticalAlign=top;shape=mxgraph.electrical.logic_gates.logic_gate;operation=xor;" vertex="1" parent="1">
          <mxGeometry x="279" y="137" width="48" height="31" as="geometry" />
        </mxCell>
        <mxCell id="FWlroTrUWCIazvGDAyiw-55" style="edgeStyle=orthogonalEdgeStyle;rounded=0;orthogonalLoop=1;jettySize=auto;html=1;exitX=0;exitY=0.25;exitDx=0;exitDy=0;exitPerimeter=0;entryX=1;entryY=0.75;entryDx=0;entryDy=0;fontSize=12;startSize=8;endSize=8;endArrow=none;endFill=0;" edge="1" parent="1" source="FWlroTrUWCIazvGDAyiw-52" target="FWlroTrUWCIazvGDAyiw-2">
          <mxGeometry relative="1" as="geometry">
            <Array as="points">
              <mxPoint x="248" y="186" />
              <mxPoint x="248" y="141" />
            </Array>
          </mxGeometry>
        </mxCell>
        <mxCell id="FWlroTrUWCIazvGDAyiw-56" style="edgeStyle=orthogonalEdgeStyle;rounded=0;orthogonalLoop=1;jettySize=auto;html=1;exitX=0;exitY=0.75;exitDx=0;exitDy=0;exitPerimeter=0;entryX=1;entryY=0.75;entryDx=0;entryDy=0;fontSize=12;startSize=8;endSize=8;endArrow=none;endFill=0;" edge="1" parent="1" source="FWlroTrUWCIazvGDAyiw-52" target="FWlroTrUWCIazvGDAyiw-19">
          <mxGeometry relative="1" as="geometry">
            <Array as="points">
              <mxPoint x="248" y="201" />
              <mxPoint x="248" y="221" />
            </Array>
          </mxGeometry>
        </mxCell>
        <mxCell id="FWlroTrUWCIazvGDAyiw-60" style="edgeStyle=orthogonalEdgeStyle;rounded=0;orthogonalLoop=1;jettySize=auto;html=1;exitX=1;exitY=0.5;exitDx=0;exitDy=0;exitPerimeter=0;fontSize=12;startSize=8;endSize=8;endArrow=none;endFill=0;entryX=0;entryY=0.75;entryDx=0;entryDy=0;entryPerimeter=0;" edge="1" parent="1" source="FWlroTrUWCIazvGDAyiw-52" target="FWlroTrUWCIazvGDAyiw-63">
          <mxGeometry relative="1" as="geometry">
            <mxPoint x="344.46380615234375" y="194" as="targetPoint" />
          </mxGeometry>
        </mxCell>
        <mxCell id="FWlroTrUWCIazvGDAyiw-52" value="" style="verticalLabelPosition=bottom;shadow=0;dashed=0;align=center;html=1;verticalAlign=top;shape=mxgraph.electrical.logic_gates.logic_gate;operation=xor;" vertex="1" parent="1">
          <mxGeometry x="279" y="178" width="48" height="31" as="geometry" />
        </mxCell>
        <mxCell id="FWlroTrUWCIazvGDAyiw-57" value="" style="rounded=0;whiteSpace=wrap;html=1;dashed=1;fillColor=none;" vertex="1" parent="1">
          <mxGeometry x="209" y="107" width="30" height="124" as="geometry" />
        </mxCell>
        <mxCell id="FWlroTrUWCIazvGDAyiw-61" value="&lt;font face=&quot;Times New Roman&quot;&gt;PIs&lt;/font&gt;" style="text;html=1;align=center;verticalAlign=middle;whiteSpace=wrap;rounded=0;fontSize=16;" vertex="1" parent="1">
          <mxGeometry x="-100.5" y="116" width="60" height="30" as="geometry" />
        </mxCell>
        <mxCell id="FWlroTrUWCIazvGDAyiw-63" value="" style="verticalLabelPosition=bottom;shadow=0;dashed=0;align=center;html=1;verticalAlign=top;shape=mxgraph.electrical.logic_gates.logic_gate;operation=or;" vertex="1" parent="1">
          <mxGeometry x="327" y="156.5" width="51" height="31" as="geometry" />
        </mxCell>
      </root>
    </mxGraphModel>
  </diagram>
</mxfile>
